<?xml version="1.0" encoding="utf-8"?>
<!-- Generator: Adobe Illustrator 16.0.3, SVG Export Plug-In . SVG Version: 6.00 Build 0)  -->
<!DOCTYPE svg PUBLIC "-//W3C//DTD SVG 1.1//EN" "http://www.w3.org/Graphics/SVG/1.1/DTD/svg11.dtd">
<svg version="1.1" xmlns="http://www.w3.org/2000/svg" xmlns:xlink="http://www.w3.org/1999/xlink" viewBox="0 0 1000 625" enable-background="new 0 0 1000 625" xml:space="preserve">
<g id="MapBG">
	<rect fill-rule="evenodd" clip-rule="evenodd" fill="#A1CAEA" width="1000" height="625"/>
	<g>
		<path fill-rule="evenodd" clip-rule="evenodd" fill="#A9D7B8" d="M1000-0.469c0,0-488.542,0.422-509.375,0.422
			c-2.217,6-4.436,14.795-6.653,20.661c-0.51,1.344-1.021,2.741-1.524,4.086c-0.201,0.476-0.378,0.996-0.623,1.452
			c-8.156,15.237-7.285,38.142-33.487,38.043c-4.855-0.019-5.525,6.892-7.27,11.146c6.311,11.813,23.547,11.535,28.053,25.344
			c0.001,0.014,0.054,1.526,0.054,1.526c-0.121,8.25-2.072,17.019-10.286,19.321c-22.655,6.352-41.017,27.342-67.628,20.099
			c-10.418,15.595-29.704,13.583-43.726,22.02c-24.344,7.594-41.169-6.345-58.131-20.15c-5.125-4.173-5.192-9.979-5.702-15.558
			c-1.137-12.476-6.499-22.18-17.427-28.593c-17.888-5.754-32.227-3.043-37.527,7.095c-7.792,14.903-3.819,30.602,10.265,40.553
			c7.185,0.35,14.468,1.608,21.53,0.836c10.798-1.181,19.092,1.284,24.956,10.959c4.614,7.613,14.085,9.363,20.088,16.014
			c4.354,4.823,11.354,6.781,9.469,15.401c-1.756,8.034-8.725,5.946-13.694,7.234c-5.237,1.358-10.25,2.158-10.669,8.928
			c-4.229,0.297-8.455,0.595-12.684,0.894c-8.996-6.654-16.688,4.297-25.371,1.881c-8.647,1.131-17.296,2.263-25.943,3.394
			c-20.635,5.416-40.706,8.56-61.441-1.762c-16.066-7.999-39.021,2.897-44.184,21.113c-2.316,8.171-6.633,7.549-11.768,8.756
			c-2.958,4.057-5.802,8.225-7.732,12.792c1.929-4.567,4.773-8.736,7.73-12.792c3.498-18.756-10.986-10.403-18.596-12.413
			c1.657,11.826-0.431,18.525-15.534,19.513c-17.821,1.165-33.052,11.559-44.919,24.822c-11.482,12.835-9.854,16.136,7.77,20.825
			c-1.56,7.237-8.235,8.339-13.158,11.314c-0.101,0.52-0.191,1.043-0.267,1.608c1.259,2.856,2.94,5.565,3.711,8.51
			c7.127,27.243,17.485,36.032,45.23,38.794c8.461,0.842,17.113,3.014,18.781,13.079c1.817,10.968,10.878,13.461,18.132,18.986
			c13.181,10.041,14.648-5.336,21.666-8.386c7.712,0.768,12.985,3.401,15.71,12.063c2.133,6.78,5.846,13.326,14.987,15.981
			c18.75,5.446,26.03,19.711,21.882,38.922c-0.879,4.065,1.79,6.575,2.958,9.84c5.157,14.423,10.673,29.068,8.711,44.757
			c-2.71,21.658,11.482,35.889,33.554,33.655c10.312-1.044,19.426-4.224,27.026-11.701c5.112,8.637,1.703,16.538,2.522,24.087
			c-2.031,11.713-7.375,22.586-13.446,32.134C238.667,588.6,249,625,249,625h751V-0.469z M192.688,337.322
			c4.298-0.221,6.475-3.322,8.091-9.322c0.003,0,0.007,0,0.011,0C199.167,334,196.987,337.101,192.688,337.322z M234.658,406.109
			c-0.034-0.036-0.065-0.074-0.099-0.109c0.001,0,0.002,0,0.003,0c1.829-1.088,3.688-1.987,5.571-2.751
			C238.283,404.037,236.457,404.978,234.658,406.109z M242.018,486.993c-0.147-0.158-0.297-0.306-0.444-0.47
			c0.029-0.029,0.282-0.305,0.297-0.322c-0.185-0.012-0.37-0.026-0.555-0.039c-0.004-0.006-0.008-0.012-0.013-0.018
			c0.194,0.014,0.389,0.027,0.583,0.04c0.052,0.252,0.092,0.506,0.139,0.758c-0.007-0.007-0.014-0.014-0.021-0.021
			C242.01,486.946,242.013,486.97,242.018,486.993z M359.223,187.082c0.002,0,0.005,0.001,0.007,0.001
			c-0.007-0.001-0.502,0.478-0.502,0.478L359.223,187.082z M354.444,186.018c-2.742-0.714-5.498-1.472-7.99-1.526
			C348.947,184.545,351.704,185.304,354.444,186.018z M321.72,275.033c0.128,0.015,0.256,0.037,0.384,0.053
			C321.976,275.07,321.848,275.048,321.72,275.033C321.72,275.033,321.72,275.033,321.72,275.033z M271.094,518.961
			c3.059-0.115,7.548,3.177,15.419,9.084c0.009,0,0.019,0.001,0.028,0.001c-2.008,5.89-2.271,14.558-6.347,17.122
			c4.076-2.563,4.296-11.233,6.305-17.123C278.643,522.141,274.149,518.85,271.094,518.961z M279.557,574.091
			c-1.588,0.784-2.897,1.113-3.943,1.096c1.022-0.005,2.293-0.337,3.83-1.096c4.059-2.004,9.564-2.268,11.568-7.44
			C289.008,571.823,283.615,572.087,279.557,574.091z M303,549.811c0,0,0-0.001,0-0.001c2.297,0.032,4.041,0.064,6.173,0.096
			C307.041,549.873,305.297,549.841,303,549.811z M380.515,584.371c-0.041-0.04-0.081-0.08-0.122-0.12l0.124,0.12
			c0.106,2.096,0.581,3.835,1.321,5.317C381.097,588.206,380.621,586.466,380.515,584.371z M390.839,443.583
			c-17.885,5.708-34.735,4.944-51.865-5.714c-20.424-12.709-37.888-30.246-61.211-38.266c-4.631-0.002-9.29-0.195-13.92-0.195
			c4.63-0.042,9.29,0.108,13.92,0.11c23.323,8.02,40.787,25.599,61.211,38.308c17.129,10.658,33.979,11.444,51.865,5.735
			c18.811-6.002,29.144-2.942,34.825,11.024c0.902,2.218,1.29,4.113,1.283,5.757c0.005-1.641-0.383-3.532-1.283-5.746
			C419.983,440.631,409.649,437.581,390.839,443.583z M454.291,219.821c-17.472-4.593-35.135-8.438-52.662-12.822
			c-15.604-3.903-11.444-18.848-15.835-29.013c-2.771-3.322-4.833-5.976-8.754-6.065c3.921,0.089,5.986,2.743,8.762,6.063
			c4.385,10.167,0.226,25.112,15.83,29.015c17.527,4.384,35.192,8.229,52.664,12.822c1.747,0.459,3.298,0.674,4.677,0.637
			C457.591,220.496,456.039,220.281,454.291,219.821z M471.258,100.296c4.487-1.274,5.741-5.04,3.954-9.291
			c-3.285-7.807-3.507-14.694-1.988-21.05c-1.474,6.356-1.195,13.244,2.09,21.052C477.103,95.259,475.768,99.027,471.258,100.296z
			 M484.105,48.545c1.979-2.899,4.004-5.78,5.895-8.695c0-0.002,0-0.004,0-0.006c0.016,0.08,0.029,0.16,0.044,0.24
			C488.102,42.919,486.071,45.723,484.105,48.545z M907.228,53.353c7.899,0.417,16.615-0.127,19.481,9.275
			c2.658,8.722,2.823,17.607-6.612,23.483c-2.138,1.332-3.985,3.396-5.45,5.487c-2.623,3.741-2.375,7.326,2.872,7.852
			c2.387,0.239,4.765,0.521,7.091,0.562c-2.328-0.041-4.706-0.323-7.095-0.562c-5.246-0.526-5.493-4.111-2.87-7.852
			c1.465-2.091,3.313-4.155,5.451-5.487c9.435-5.876,9.271-14.761,6.612-23.483C923.843,53.226,915.127,53.769,907.228,53.353
			c-6.103-0.323-12.143-0.436-18.231-0.981C895.085,52.917,901.125,53.03,907.228,53.353z M843,412.348
			c0.298-0.965,0.336-1.981,0.336-3c0.02,1.018,0.03,2.035-0.163,3c0.706,0.739,1.265,1.478,1.71,2.217
			c-0.488-0.739-1.104-1.477-1.884-2.215C843,412.349,843,412.348,843,412.348z M695.225,230.486
			c-5.229,0.701-10.457,0.913-15.7,0.896C684.768,231.399,689.996,231.187,695.225,230.486z M668.626,231.317
			C668.626,231.317,668.626,231.317,668.626,231.317l-0.438-0.643L668.626,231.317z M490.88,60.71
			c0.726-5.482,0.471-10.909-0.129-16.405C491.528,49.803,491.695,55.229,490.88,60.71z M497.347,22.542
			c2.272-1.027,5.308-1.355,9.385-0.727c3.85-1.036,7.701-2.072,11.549-3.11c-3.849,1.038-7.7,2.074-11.551,3.111
			C502.654,21.188,499.619,21.516,497.347,22.542z M518.277,19.488c0.061,1.873,0.658,3.119,1.717,4.05
			C518.934,22.606,518.337,21.36,518.277,19.488z M547.724,48.625c-3.428,11.316-0.084,28.601,7.255,38.918
			C547.636,77.222,544.291,59.928,547.724,48.625z M571.673,185.573c4.153,8.679,13.375,14.286,25.974,14.468
			c7.143,0.027,13.71-1.414,18.651-6.454c-4.941,5.041-11.508,6.482-18.648,6.462C585.05,199.862,575.827,194.253,571.673,185.573z
			 M590.689,549.466c-0.169,1.116-0.34,2.235-0.509,3.355c0.169-1.12,0.34-2.24,0.509-3.361c0.2-1.441,0.275-2.785,0.238-4.04
			C590.964,546.676,590.89,548.023,590.689,549.466z M590.346,400.355L590.346,400.355l0.605-0.728
			C590.69,399.941,590.344,400.357,590.346,400.355z M589.748,334.861c1.84,1.843,3.741,3.544,6.732,2.639
			C593.49,338.408,591.589,336.706,589.748,334.861z M631.17,499.724c-0.056-0.061-0.099-0.124-0.153-0.185
			c-0.006,0.061-0.012,0.124-0.018,0.185v0.001c-1.248-1.46-2.057-2.958-2.549-4.491c-1.578-4.611-0.089-9.535,0.909-14.659
			c-0.998,5.124-2.39,10.048-0.909,14.659c0.502,1.468,1.328,2.904,2.567,4.305c0.356-3.917,0.79-8.003,1.532-11.947
			C631.819,491.598,631.433,495.75,631.17,499.724z M629.953,477.698c0.111-0.849,0.188-1.703,0.219-2.56
			C630.141,475.996,630.064,476.849,629.953,477.698z M633.534,578c0.001,0,0.002,0,0.003,0c4.67,9,11.798,14.829,20.241,18.595
			C645.335,592.829,638.206,587,633.534,578z M655.698,359c-1.572,0-3.144,0.453-4.717,0.74c-2.679-3.803-3.903-8.013-4.068-12.623
			c0.004,0.003,0.008,0.006,0.013,0.009c0.191,4.537,1.413,8.743,4.055,12.493c1.561-0.285,3.121-0.569,4.689-0.849
			c0.01,0.078,0.026,0.151,0.036,0.23C655.704,359,655.701,359,655.698,359z M625.595,253.514
			c-11.363,9.073-24.043-1.778-36.176-0.4c0.001-0.001,0.001-0.001,0.002-0.002c12.132-1.376,24.811,9.471,36.173,0.398
			c27.986-22.342,57.311-7.309,85.966-4.514c-0.001,0.002-0.002,0.004-0.004,0.007C682.903,246.207,653.58,231.172,625.595,253.514z
			 M698.532,326.977c0.014-4.692-1.46-9.676-2.64-13.795c-1.583-5.53-2.273-10.767-2.263-15.781
			c-0.008,5.01,0.681,10.241,2.263,15.766C697.074,317.292,698.55,322.282,698.532,326.977z M681,527.778c0-0.001,0-0.002,0-0.003
			c1-1.037,1.562-2.073,2.245-3.109c-0.684,1.037-1.267,2.075-1.949,3.112c-0.007,0.059-0.004,0.117-0.001,0.176
			c0.013,0.021-0.005,0.041-0.028,0.063c0.009,0.017,0.018,0.034,0.027,0.051c0.001,0.05,0.005,0.099-0.001,0.149
			c-0.027,0.003-0.031,0.006-0.059,0.009c0.28,0.514,0.555,1.024,0.83,1.536c1.464,2.456,2.662,5.011,4.21,7.851
			c-1.59-2.917-2.888-5.393-4.21-7.851c-0.339-0.569-0.688-1.134-1.064-1.694c0-0.008,0-0.015,0-0.023c0-0.03,0-0.061,0-0.091
			c0-0.073,0.039-0.142,0.05-0.231C681.05,527.723,681,527.778,681,527.778z M684.296,465.683c0,0,0.16-0.165,0.161-0.166h0
			L684.296,465.683z M678.239,358.941c0.414,0.025,0.827,0.036,1.24,0.056c-0.412,0-0.824,0.003-1.237,0.003
			c-0.001,0-0.002,0-0.004,0c-0.065-0.382-0.137-0.768-0.21-1.156C678.102,358.215,678.174,358.582,678.239,358.941z
			 M676.806,349.74c-0.038-2.571,0.581-4.809,2.666-6.242C677.421,344.946,676.789,347.198,676.806,349.74z M663.08,422.47
			c-0.984,0.155-2.003,0.385-2.512,1.038c0.51-0.655,1.533-0.889,2.526-1.055c3.027-0.185,5.195,0.937,4.982,4.23
			C668.289,423.39,666.121,422.269,663.08,422.47z M709,490.096c0-0.001,0-0.003,0-0.004c3,3.715,4.918,8.267,6.015,13.329
			C713.918,498.359,712,493.809,709,490.096z M701.454,356.802c-1.198,0.335-2.4,0.604-3.604,0.844
			c1.205-0.258,2.407-0.539,3.604-0.874c11.799-3.295,18.155-10.675,18.396-19.645C719.612,346.11,713.256,353.505,701.454,356.802z
			 M813,224.28c6.685,1.866,13.092,4.396,18.366,9.505c0.95,0.273,1.899,0.549,2.85,0.827c-0.951-0.277-1.9-0.554-2.854-0.827
			C826.091,228.676,819.685,226.146,813,224.28z M843.526,429.671c-4.204,11.175-7.514,22.7-12.009,33.749
			c4.495-11.049,7.718-22.574,11.922-33.749c0.653-1.737,1.391-3.447,1.969-5.139C844.875,426.225,844.179,427.935,843.526,429.671z
			 M896.798,503.04c-0.002-0.011-0.004-0.022-0.006-0.033C896.794,503.018,896.796,503.029,896.798,503.04L896.798,503.04z
			 M988.466,265.616c-5.194,11.368-19.212,12.438-33.255,13.673c14.098,12.468,12.491,26.065,6.914,39.969
			c-5.643,14.071-17.453,15.689-30.807,15.876c-24.831,0.351-47.367,20.961-53.31,45.261c-3.908,15.975-19.545,17.83-32.414,22.368
			c-1.655,1.229-2.119,2.759-2.235,4.376c0.092-1.618,0.493-3.147,2.148-4.376c12.869-4.538,28.549-6.393,32.457-22.368
			c5.943-24.3,28.501-44.91,53.332-45.261c13.354-0.188,25.175-1.805,30.818-15.876c5.577-13.904,7.189-27.501-6.908-39.969
			c14.042-1.236,28.064-2.306,33.257-13.673c5.309-11.618,5.299-25.886-5.525-36.354c-5.547-5.363-11.56-7.867-17.742-7.913
			c6.183,0.046,12.196,2.55,17.743,7.913C993.764,239.729,993.774,253.998,988.466,265.616z"/>
		<path fill-rule="evenodd" clip-rule="evenodd" fill="#65966D" d="M681,528.045c0,0.03,0.179,0.061,0.195,0.059
			c0.004-0.031,0.042-0.06,0.072-0.087c-0.003-0.006-0.006-0.011-0.009-0.017C681.264,528,681,528.023,681,528.045z"/>
		<path fill-rule="evenodd" clip-rule="evenodd" fill="#65966D" d="M90.515,228.186c0.062,0.018,0.128,0.029,0.191,0.046
			c-0.012-0.083-0.021-0.165-0.034-0.249L90.515,228.186z"/>
		<path fill-rule="evenodd" clip-rule="evenodd" fill="#A9D7B8" d="M232.443,192.575c-6.168,2.191-13.042,7.867-16.725-1.637
			c-2.892-7.463-9.316-11.956-12.49-18.848c-15.275-4.771-30.447-7.793-44.839,2.609c0.495,27.756,0.635,27.098,28.362,32.98
			c13.29,2.82,27.232-1.375,39.944,4.858c8.647-1.131,17.296-2.263,25.949-3.395C255.927,192.46,249.066,186.671,232.443,192.575z"
			/>
		<path fill-rule="evenodd" clip-rule="evenodd" fill="#A9D7B8" d="M130.597,184.101c-1.097-5.091-3.471-4.959-8.876-2.878
			l-5.111,8.141c2.044,0.271,4.08,0.712,6.125,0.757C126.917,190.207,131.973,190.491,130.597,184.101z"/>
		<path fill-rule="evenodd" clip-rule="evenodd" fill="#65966D" d="M241.603,486.495c0.132,0.149,0.269,0.282,0.402,0.427
			c-0.047-0.24-0.084-0.481-0.134-0.72C241.856,486.218,241.603,486.495,241.603,486.495z"/>
	</g>
</g>
<g id="Route_1">
	
		<line fill="none" stroke="#444444" stroke-width="5" stroke-linecap="round" stroke-miterlimit="10" x1="660.5" y1="486" x2="660.5" y2="562"/>
	<g>
		<path fill="#444444" fill-opacity="0.3" d="M684,531c0,1.104-0.896,2-2,2h-15c-1.104,0-2-0.896-2-2v-15c0-1.104,0.896-2,2-2h15
			c1.104,0,2,0.896,2,2V531z"/>
		<text transform="matrix(1 0 0 1 671.7051 528.25)" fill="#FFFFFF" font-family="'HelveticaNeue-CondensedBold'" font-size="13">1</text>
	</g>
</g>
<g id="Route_2">
	
		<line fill="none" stroke="#444444" stroke-width="5" stroke-linecap="round" stroke-miterlimit="10" x1="660.5" y1="423" x2="660.5" y2="486"/>
	<g>
		<path fill="#444444" fill-opacity="0.3" d="M684,459c0,1.104-0.896,2-2,2h-15c-1.104,0-2-0.896-2-2v-15c0-1.104,0.896-2,2-2h15
			c1.104,0,2,0.896,2,2V459z"/>
		<text transform="matrix(1 0 0 1 671.7051 456.25)" fill="#FFFFFF" font-family="'HelveticaNeue-CondensedBold'" font-size="13">2</text>
	</g>
</g>
<g id="Route_3">
	
		<line fill="none" stroke="#444444" stroke-width="5" stroke-linecap="round" stroke-miterlimit="10" x1="615.611" y1="370.609" x2="660.667" y2="423"/>
	<g>
		<path fill="#444444" fill-opacity="0.3" d="M636,417c0,1.104-0.896,2-2,2h-15c-1.104,0-2-0.896-2-2v-15c0-1.104,0.896-2,2-2h15
			c1.104,0,2,0.896,2,2V417z"/>
		<text transform="matrix(1 0 0 1 623.7051 414.25)" fill="#FFFFFF" font-family="'HelveticaNeue-CondensedBold'" font-size="13">3</text>
	</g>
</g>
<g id="Route_4">
	
		<line fill="none" stroke="#444444" stroke-width="5" stroke-linecap="round" stroke-miterlimit="10" x1="615.611" y1="370.609" x2="515.5" y2="246"/>
	<g>
		<path fill="#444444" fill-opacity="0.3" d="M598,317c0,1.104-0.896,2-2,2h-15c-1.104,0-2-0.896-2-2v-15c0-1.104,0.896-2,2-2h15
			c1.104,0,2,0.896,2,2V317z"/>
		<text transform="matrix(1 0 0 1 585.7051 314.25)" fill="#FFFFFF" font-family="'HelveticaNeue-CondensedBold'" font-size="13">4</text>
	</g>
</g>
<g id="Route_5">
	
		<line fill="none" stroke="#444444" stroke-width="5" stroke-linecap="round" stroke-miterlimit="10" x1="515.5" y1="246" x2="410.333" y2="377"/>
	<g>
		<path fill="#444444" fill-opacity="0.3" d="M482,334c0,1.104-0.896,2-2,2h-15c-1.104,0-2-0.896-2-2v-15c0-1.104,0.896-2,2-2h15
			c1.104,0,2,0.896,2,2V334z"/>
		<text transform="matrix(1 0 0 1 469.7051 331.25)" fill="#FFFFFF" font-family="'HelveticaNeue-CondensedBold'" font-size="13">5</text>
	</g>
</g>
<g id="Route_6">
	
		<line fill="none" stroke="#444444" stroke-width="5" stroke-linecap="round" stroke-miterlimit="10" x1="410.333" y1="377" x2="294.333" y2="293"/>
	<g>
		<path fill="#444444" fill-opacity="0.3" d="M375,331c0,1.104-0.896,2-2,2h-15c-1.104,0-2-0.896-2-2v-15c0-1.104,0.896-2,2-2h15
			c1.104,0,2,0.896,2,2V331z"/>
		<text transform="matrix(1 0 0 1 362.7051 328.25)" fill="#FFFFFF" font-family="'HelveticaNeue-CondensedBold'" font-size="13">6</text>
	</g>
</g>
<g id="Route_7">
	
		<line fill="none" stroke="#444444" stroke-width="5" stroke-linecap="round" stroke-miterlimit="10" x1="410" y1="378.5" x2="204" y2="378.5"/>
	<g>
		<path fill="#444444" fill-opacity="0.3" d="M308,400c0,1.104-0.896,2-2,2h-15c-1.104,0-2-0.896-2-2v-15c0-1.104,0.896-2,2-2h15
			c1.104,0,2,0.896,2,2V400z"/>
		<text transform="matrix(1 0 0 1 295.7051 397.25)" fill="#FFFFFF" font-family="'HelveticaNeue-CondensedBold'" font-size="13">7</text>
	</g>
</g>
<g id="Route_8">
	
		<line fill="none" stroke="#444444" stroke-width="5" stroke-linecap="round" stroke-miterlimit="10" x1="174" y1="377.5" x2="224.333" y2="496"/>
	<g>
		<path fill="#444444" fill-opacity="0.3" d="M225,441c0,1.104-0.896,2-2,2h-15c-1.104,0-2-0.896-2-2v-15c0-1.104,0.896-2,2-2h15
			c1.104,0,2,0.896,2,2V441z"/>
		<text transform="matrix(1 0 0 1 212.7051 438.25)" fill="#FFFFFF" font-family="'HelveticaNeue-CondensedBold'" font-size="13">8</text>
	</g>
</g>
<g id="Route_9">
	
		<line fill="none" stroke="#444444" stroke-width="5" stroke-linecap="round" stroke-miterlimit="10" x1="224" y1="497.5" x2="362" y2="497.5"/>
	<g>
		<path fill="#444444" fill-opacity="0.3" d="M307,491c0,1.104-0.896,2-2,2h-15c-1.104,0-2-0.896-2-2v-15c0-1.104,0.896-2,2-2h15
			c1.104,0,2,0.896,2,2V491z"/>
		<text transform="matrix(1 0 0 1 294.7051 488.25)" fill="#FFFFFF" font-family="'HelveticaNeue-CondensedBold'" font-size="13">9</text>
	</g>
</g>
<g id="Route_10">
	
		<line fill="none" stroke="#444444" stroke-width="5" stroke-linecap="round" stroke-miterlimit="10" x1="174" y1="377.5" x2="90.334" y2="311.5"/>
	<g>
		<path fill="#444444" fill-opacity="0.3" d="M155,339c0,1.104-0.896,2-2,2h-17c-1.104,0-2-0.896-2-2v-15c0-1.104,0.896-2,2-2h17
			c1.104,0,2,0.896,2,2V339z"/>
		<text transform="matrix(1 0 0 1 138.709 336.25)" fill="#FFFFFF" font-family="'HelveticaNeue-CondensedBold'" font-size="13">10</text>
	</g>
</g>
<g id="Route_11">
	
		<line fill="none" stroke="#444444" stroke-width="5" stroke-linecap="round" stroke-miterlimit="10" x1="90.334" y1="311.5" x2="126.667" y2="258.667"/>
	<g>
		<path fill="#444444" fill-opacity="0.3" d="M105,281c0,1.104-0.896,2-2,2H86c-1.104,0-2-0.896-2-2v-15c0-1.104,0.896-2,2-2h17
			c1.104,0,2,0.896,2,2V281z"/>
		<text transform="matrix(1 0 0 1 88.709 278.25)" fill="#FFFFFF" font-family="'HelveticaNeue-CondensedBold'" font-size="13">11</text>
	</g>
</g>
<g id="Route_12">
	
		<line fill="none" stroke="#444444" stroke-width="5" stroke-linecap="round" stroke-miterlimit="10" x1="149.667" y1="237" x2="345" y2="197.118"/>
	<g>
		<path fill="#444444" fill-opacity="0.3" d="M270,238c0,1.104-0.896,2-2,2h-17c-1.104,0-2-0.896-2-2v-15c0-1.104,0.896-2,2-2h17
			c1.104,0,2,0.896,2,2V238z"/>
		<text transform="matrix(1 0 0 1 253.709 235.25)" fill="#FFFFFF" font-family="'HelveticaNeue-CondensedBold'" font-size="13">12</text>
	</g>
</g>
<g id="Route_13">
	
		<line fill="none" stroke="#444444" stroke-width="5" stroke-linecap="round" stroke-miterlimit="10" x1="345" y1="197.118" x2="515.5" y2="246"/>
	<g>
		<path fill="#444444" fill-opacity="0.3" d="M445,214c0,1.104-0.896,2-2,2h-17c-1.104,0-2-0.896-2-2v-15c0-1.104,0.896-2,2-2h17
			c1.104,0,2,0.896,2,2V214z"/>
		<text transform="matrix(1 0 0 1 428.709 211.25)" fill="#FFFFFF" font-family="'HelveticaNeue-CondensedBold'" font-size="13">13</text>
	</g>
</g>
<g id="Route_14">
	
		<line fill="none" stroke="#444444" stroke-width="5" stroke-linecap="round" stroke-miterlimit="10" x1="514.5" y1="246" x2="514.5" y2="75"/>
	<g>
		<path fill="#444444" fill-opacity="0.3" d="M510,159c0,1.104-0.896,2-2,2h-17c-1.104,0-2-0.896-2-2v-15c0-1.104,0.896-2,2-2h17
			c1.104,0,2,0.896,2,2V159z"/>
		<text transform="matrix(1 0 0 1 493.709 156.25)" fill="#FFFFFF" font-family="'HelveticaNeue-CondensedBold'" font-size="13">14</text>
	</g>
</g>
<g id="Route_15">
	
		<line fill="none" stroke="#444444" stroke-width="5" stroke-linecap="round" stroke-miterlimit="10" x1="515.5" y1="73" x2="684.607" y2="197.118"/>
	<g>
		<path fill="#444444" fill-opacity="0.3" d="M621,129c0,1.104-0.896,2-2,2h-17c-1.104,0-2-0.896-2-2v-15c0-1.104,0.896-2,2-2h17
			c1.104,0,2,0.896,2,2V129z"/>
		<text transform="matrix(1 0 0 1 604.709 126.25)" fill="#FFFFFF" font-family="'HelveticaNeue-CondensedBold'" font-size="13">15</text>
	</g>
</g>
<g id="Route_16">
	
		<line fill="none" stroke="#444444" stroke-width="5" stroke-linecap="round" stroke-miterlimit="10" x1="684.607" y1="197.118" x2="515.5" y2="246"/>
	<g>
		<path fill="#444444" fill-opacity="0.3" d="M630,240c0,1.104-0.896,2-2,2h-17c-1.104,0-2-0.896-2-2v-15c0-1.104,0.896-2,2-2h17
			c1.104,0,2,0.896,2,2V240z"/>
		<text transform="matrix(1 0 0 1 613.709 237.25)" fill="#FFFFFF" font-family="'HelveticaNeue-CondensedBold'" font-size="13">16</text>
	</g>
</g>
<g id="Route_17">
	
		<line fill="none" stroke="#444444" stroke-width="5" stroke-linecap="round" stroke-miterlimit="10" x1="684.607" y1="197.118" x2="877.598" y2="249"/>
	<g>
		<path fill="#444444" fill-opacity="0.3" d="M803,217c0,1.104-0.896,2-2,2h-17c-1.104,0-2-0.896-2-2v-15c0-1.104,0.896-2,2-2h17
			c1.104,0,2,0.896,2,2V217z"/>
		<text transform="matrix(1 0 0 1 786.709 214.25)" fill="#FFFFFF" font-family="'HelveticaNeue-CondensedBold'" font-size="13">17</text>
	</g>
</g>
<g id="Route_18">
	
		<line fill="none" stroke="#444444" stroke-width="5" stroke-linecap="round" stroke-miterlimit="10" x1="877.598" y1="249" x2="931.095" y2="300.113"/>
	<g>
		<path fill="#444444" fill-opacity="0.3" d="M973,307c0,1.104-0.896,2-2,2h-17c-1.104,0-2-0.896-2-2v-15c0-1.104,0.896-2,2-2h17
			c1.104,0,2,0.896,2,2V307z"/>
		<text transform="matrix(1 0 0 1 956.709 304.25)" fill="#FFFFFF" font-family="'HelveticaNeue-CondensedBold'" font-size="13">18</text>
	</g>
</g>
<g id="Route_19">
	
		<line fill="none" stroke="#444444" stroke-width="5" stroke-linecap="round" stroke-miterlimit="10" x1="931.095" y1="300.113" x2="847.099" y2="365.61"/>
	<g>
		<path fill="#444444" fill-opacity="0.3" d="M915,351c0,1.104-0.896,2-2,2h-17c-1.104,0-2-0.896-2-2v-15c0-1.104,0.896-2,2-2h17
			c1.104,0,2,0.896,2,2V351z"/>
		<text transform="matrix(1 0 0 1 898.709 348.25)" fill="#FFFFFF" font-family="'HelveticaNeue-CondensedBold'" font-size="13">19</text>
	</g>
</g>
<g id="Route_20">
	
		<line fill="none" stroke="#444444" stroke-width="5" stroke-linecap="round" stroke-miterlimit="10" x1="847.099" y1="365.61" x2="818.333" y2="485"/>
	<g>
		<path fill="#444444" fill-opacity="0.3" d="M860,438c0,1.104-0.896,2-2,2h-18c-1.104,0-2-0.896-2-2v-15c0-1.104,0.896-2,2-2h18
			c1.104,0,2,0.896,2,2V438z"/>
		<text transform="matrix(1 0 0 1 843.709 435.25)" fill="#FFFFFF" font-family="'HelveticaNeue-CondensedBold'" font-size="13">20</text>
	</g>
</g>
<g id="Route_21">
	
		<line fill="none" stroke="#444444" stroke-width="5" stroke-linecap="round" stroke-miterlimit="10" x1="847" y1="365.5" x2="735" y2="362.5"/>
	<g>
		<path fill="#444444" fill-opacity="0.3" d="M801,386c0,1.104-0.896,2-2,2h-18c-1.104,0-2-0.896-2-2v-15c0-1.104,0.896-2,2-2h18
			c1.104,0,2,0.896,2,2V386z"/>
		<text transform="matrix(1 0 0 1 784.709 383.25)" fill="#FFFFFF" font-family="'HelveticaNeue-CondensedBold'" font-size="13">21</text>
	</g>
</g>
<g id="Route_22">
	
		<line fill="none" stroke="#444444" stroke-width="5" stroke-linecap="round" stroke-miterlimit="10" x1="734.5" y1="363" x2="615.611" y2="370.609"/>
	<g>
		<path fill="#444444" fill-opacity="0.3" d="M693,359c0,1.104-0.896,2-2,2h-19c-1.104,0-2-0.896-2-2v-15c0-1.104,0.896-2,2-2h19
			c1.104,0,2,0.896,2,2V359z"/>
		<text transform="matrix(1 0 0 1 675.709 356.25)" fill="#FFFFFF" font-family="'HelveticaNeue-CondensedBold'" font-size="13">22</text>
	</g>
</g>
<g id="Place_Victory_Road_(Kalos)">
	<g>
		<g>
			
				<line fill="none" stroke="#444444" stroke-width="6" stroke-linecap="round" stroke-miterlimit="10" x1="734" y1="353" x2="734" y2="348"/>
			
				<line fill="none" stroke="#444444" stroke-width="6" stroke-linecap="round" stroke-miterlimit="10" stroke-dasharray="8,8" x1="734" y1="340" x2="734" y2="312"/>
			
				<line fill="none" stroke="#444444" stroke-width="6" stroke-linecap="round" stroke-miterlimit="10" x1="734" y1="308" x2="734" y2="303"/>
		</g>
	</g>
	<circle fill="#F29E53" stroke="#444444" stroke-width="5" stroke-miterlimit="10" cx="733.75" cy="362.75" r="10"/>
	<g opacity="0.5">
		<text transform="matrix(1 0 0 1 743.75 353)" fill="#444444" font-family="'HelveticaNeue-CondensedBold'" font-size="11">Victory Road</text>
	</g>
</g>
<g id="Place_Azure_Bay">
	<g>
		<g>
			
				<line fill="none" stroke="#444444" stroke-width="6" stroke-linecap="round" stroke-miterlimit="10" x1="333.61" y1="185.728" x2="329.721" y2="182.586"/>
			
				<line fill="none" stroke="#444444" stroke-width="6" stroke-linecap="round" stroke-miterlimit="10" stroke-dasharray="9.6164,9.6164" x1="322.24" y1="176.543" x2="266.134" y2="131.224"/>
			
				<line fill="none" stroke="#444444" stroke-width="6" stroke-linecap="round" stroke-miterlimit="10" x1="262.394" y1="128.202" x2="258.504" y2="125.061"/>
		</g>
	</g>
	<g opacity="0.5">
		<text transform="matrix(1 0 0 1 258.75 171)" fill="#444444" font-family="'HelveticaNeue-CondensedBold'" font-size="11">Azure Bay</text>
	</g>
</g>
<g id="Town_Vaniville">
	<circle fill="#FFFFFF" stroke="#444444" stroke-width="5" stroke-miterlimit="10" cx="661.75" cy="562.75" r="15.75"/>
	<text transform="matrix(1 0 0 1 565.5557 567.3335)" fill="#444444" font-family="'HelveticaNeue-CondensedBold'" font-size="13">Vaniville Town</text>
</g>
<g id="Town_Aquacorde">
	<circle fill="#FFFFFF" stroke="#444444" stroke-width="5" stroke-miterlimit="10" cx="660.75" cy="486.75" r="15.75"/>
	<text transform="matrix(1 0 0 1 681.75 490.1362)" fill="#444444" font-family="'HelveticaNeue-CondensedBold'" font-size="13">Aquacorde Town</text>
</g>
<g id="City_Santalune">
	<circle fill="#FFFFFF" stroke="#444444" stroke-width="5" stroke-miterlimit="10" cx="615.75" cy="370.75" r="15.75"/>
	<g>
		<text transform="matrix(1 0 0 1 542.2856 368.25)"><tspan x="0" y="0" fill="#444444" font-family="'HelveticaNeue-CondensedBold'" font-size="13">Santalune</tspan><tspan x="28.769" y="13" fill="#444444" font-family="'HelveticaNeue-CondensedBold'" font-size="13">City</tspan></text>
	</g>
</g>
<g id="Town_Camphrier">
	<circle fill="#FFFFFF" stroke="#444444" stroke-width="5" stroke-miterlimit="10" cx="410.75" cy="377.75" r="15.75"/>
	<text transform="matrix(1 0 0 1 373.3623 408.5)" fill="#444444" font-family="'HelveticaNeue-CondensedBold'" font-size="13">Camphrier Town</text>
</g>
<g id="City_Cyllage">
	<circle fill="#FFFFFF" stroke="#444444" stroke-width="5" stroke-miterlimit="10" cx="173.75" cy="376.75" r="15.75"/>
	<text transform="matrix(1 0 0 1 172 355)" fill="#444444" font-family="'HelveticaNeue-CondensedBold'" font-size="13">Cyllage City</text>
</g>
<g id="Town_Ambrette">
	<circle fill="#FFFFFF" stroke="#444444" stroke-width="5" stroke-miterlimit="10" cx="224.75" cy="496.75" r="15.75"/>
	<g>
		<text transform="matrix(1 0 0 1 156.6553 495.1367)"><tspan x="0" y="0" fill="#444444" font-family="'HelveticaNeue-CondensedBold'" font-size="13">Ambrette</tspan><tspan x="16.913" y="13" fill="#444444" font-family="'HelveticaNeue-CondensedBold'" font-size="13">Town</tspan></text>
	</g>
</g>
<g id="Town_Geosenge">
	<circle fill="#FFFFFF" stroke="#444444" stroke-width="5" stroke-miterlimit="10" cx="90.75" cy="311.75" r="15.75"/>
	<text transform="matrix(1 0 0 1 20.2534 309.6367)"><tspan x="0" y="0" fill="#444444" font-family="'HelveticaNeue-CondensedBold'" font-size="13">Geosenge</tspan><tspan x="19.565" y="13" fill="#444444" font-family="'HelveticaNeue-CondensedBold'" font-size="13">Town</tspan></text>
</g>
<g id="City_Shalour">
	<circle fill="#FFFFFF" stroke="#444444" stroke-width="5" stroke-miterlimit="10" cx="149.75" cy="236.75" r="15.75"/>
	<text transform="matrix(1 0 0 1 169.5 251.5)"><tspan x="0" y="0" fill="#444444" font-family="'HelveticaNeue-CondensedBold'" font-size="13">Shalour</tspan><tspan x="0" y="13" fill="#444444" font-family="'HelveticaNeue-CondensedBold'" font-size="13">City</tspan></text>
</g>
<g id="City_Coumarine">
	<circle fill="#FFFFFF" stroke="#444444" stroke-width="5" stroke-miterlimit="10" cx="344.75" cy="196.75" r="15.75"/>
	<text transform="matrix(1 0 0 1 319.4521 227.2319)"><tspan x="0" y="0" fill="#444444" font-family="'HelveticaNeue-CondensedBold'" font-size="13">Coumarine</tspan><tspan x="16.413" y="13" fill="#444444" font-family="'HelveticaNeue-CondensedBold'" font-size="13">City</tspan></text>
</g>
<g id="City_Anistar">
	<circle fill="#FFFFFF" stroke="#444444" stroke-width="5" stroke-miterlimit="10" cx="877.75" cy="248.75" r="15.75"/>
	<g>
		<text transform="matrix(1 0 0 1 888.0972 230.5)" fill="#444444" font-family="'HelveticaNeue-CondensedBold'" font-size="13">Anistar City</text>
	</g>
</g>
<g id="City_Snowbelle">
	<circle fill="#FFFFFF" stroke="#444444" stroke-width="5" stroke-miterlimit="10" cx="846.75" cy="365.75" r="15.75"/>
	<text transform="matrix(1 0 0 1 866 381.25)" fill="#444444" font-family="'HelveticaNeue-CondensedBold'" font-size="13">Snowbelle City</text>
</g>
<g id="City_Lumiose">
	<circle fill="#FFFFFF" stroke="#444444" stroke-width="5" stroke-miterlimit="10" cx="514.75" cy="245.75" r="32.5"/>
	<text transform="matrix(1 0 0 1 552.5 257.2319)"><tspan x="0" y="0" fill="#444444" font-family="'HelveticaNeue-CondensedBold'" font-size="13">Lumiose</tspan><tspan x="0" y="13" fill="#444444" font-family="'HelveticaNeue-CondensedBold'" font-size="13">City</tspan></text>
</g>
<g id="Place_Pokémon_League_(Kalos)">
	<circle fill="#FFFFFF" stroke="#444444" stroke-width="5" stroke-miterlimit="10" cx="734.75" cy="286.75" r="15.75"/>
	<text transform="matrix(1 0 0 1 756.7124 285.25)"><tspan x="0" y="0" fill="#444444" font-family="'HelveticaNeue-CondensedBold'" font-size="13">Pokemon</tspan><tspan x="0" y="13" fill="#444444" font-family="'HelveticaNeue-CondensedBold'" font-size="13">League</tspan></text>
</g>
<g id="Place_Santalune_Forest">
	<circle fill="#F29E53" stroke="#444444" stroke-width="5" stroke-miterlimit="10" cx="660.75" cy="422.75" r="10"/>
	<g opacity="0.5">
		<text transform="matrix(1 0 0 1 675.0557 426)" fill="#444444" font-family="'HelveticaNeue-CondensedBold'" font-size="11">Santalune Forest</text>
	</g>
</g>
<g id="Place_Chamber_of_Emptiness">
	<circle fill="#F29E53" stroke="#444444" stroke-width="5" stroke-miterlimit="10" cx="682.75" cy="380.75" r="10"/>
	<g opacity="0.5">
		<text transform="matrix(1 0 0 1 695 392.8047)"><tspan x="0" y="0" fill="#444444" font-family="'HelveticaNeue-CondensedBold'" font-size="11">Chamber of</tspan><tspan x="0" y="9" fill="#444444" font-family="'HelveticaNeue-CondensedBold'" font-size="11">Emptiness</tspan></text>
	</g>
</g>
<g id="Place_Pokemon_Village">
	<circle fill="#F29E53" stroke="#444444" stroke-width="5" stroke-miterlimit="10" cx="818.75" cy="484.75" r="10"/>
	<g opacity="0.5">
		<text transform="matrix(1 0 0 1 792.3804 505.6665)" fill="#444444" font-family="'HelveticaNeue-CondensedBold'" font-size="11">Pokemon VIllage</text>
	</g>
</g>
<g id="Place_Terminus_Cave">
	<circle fill="#F29E53" stroke="#444444" stroke-width="5" stroke-miterlimit="10" cx="920.75" cy="273.75" r="10"/>
	<g opacity="0.5">
		<text transform="matrix(1 0 0 1 930.3335 264.6665)" fill="#444444" font-family="'HelveticaNeue-CondensedBold'" font-size="11">Terminus Cave</text>
	</g>
</g>
<g id="Place_Frost_Cavern">
	<circle fill="#F29E53" stroke="#444444" stroke-width="5" stroke-miterlimit="10" cx="694.75" cy="169.75" r="10"/>
	<g opacity="0.5">
		<text transform="matrix(1 0 0 1 674.9595 155.5)" fill="#444444" font-family="'HelveticaNeue-CondensedBold'" font-size="11">Frost Cavern</text>
	</g>
</g>
<g id="Place_Lost_Hotel">
	<circle fill="#F29E53" stroke="#444444" stroke-width="5" stroke-miterlimit="10" cx="595.75" cy="159.75" r="10"/>
	<g opacity="0.5">
		<text transform="matrix(1 0 0 1 579.1895 182)" fill="#444444" font-family="'HelveticaNeue-CondensedBold'" font-size="11">Lost Hotel</text>
	</g>
</g>
<g id="Place_Poke_Ball_Factory">
	<circle fill="#F29E53" stroke="#444444" stroke-width="5" stroke-miterlimit="10" cx="515.75" cy="43.75" r="10"/>
	<g opacity="0.5">
		<text transform="matrix(1 0 0 1 486.4346 29)" fill="#444444" font-family="'HelveticaNeue-CondensedBold'" font-size="11">Pokeball Factory</text>
	</g>
</g>
<g id="Place_Sea_Spirit%27s_Den">
	<circle fill="#F29E53" stroke="#444444" stroke-width="5" stroke-miterlimit="10" cx="250.75" cy="118.75" r="10"/>
	<g opacity="0.5">
		<text transform="matrix(1 0 0 1 265.667 119)" fill="#444444" font-family="'HelveticaNeue-CondensedBold'" font-size="11">Sea Spirit&apos;s Den</text>
	</g>
</g>
<g id="Place_Kalos_Power_Plant">
	<circle fill="#F29E53" stroke="#444444" stroke-width="5" stroke-miterlimit="10" cx="420.75" cy="232.75" r="10"/>
	<g opacity="0.5">
		<text transform="matrix(1 0 0 1 396.4526 254.2319)"><tspan x="0" y="0" fill="#444444" font-family="'HelveticaNeue-CondensedBold'" font-size="11">Kalos Power</tspan><tspan x="14.217" y="9" fill="#444444" font-family="'HelveticaNeue-CondensedBold'" font-size="11">Plant</tspan></text>
	</g>
</g>
<g id="Place_Parfum_Palace">
	<circle fill="#F29E53" stroke="#444444" stroke-width="5" stroke-miterlimit="10" cx="294.75" cy="292.75" r="10"/>
	<g opacity="0.5">
		<text transform="matrix(1 0 0 1 246.7437 290.5)"><tspan x="0" y="0" fill="#444444" font-family="'HelveticaNeue-CondensedBold'" font-size="11">Parfum</tspan><tspan x="2.64" y="9" fill="#444444" font-family="'HelveticaNeue-CondensedBold'" font-size="11">Palace</tspan></text>
	</g>
</g>
<g id="Place_Glittering_Cave">
	<circle fill="#F29E53" stroke="#444444" stroke-width="5" stroke-miterlimit="10" cx="361.75" cy="496.75" r="10"/>
	<g opacity="0.5">
		<text transform="matrix(1 0 0 1 376.75 496.5)"><tspan x="0" y="0" fill="#444444" font-family="'HelveticaNeue-CondensedBold'" font-size="11">Glittering</tspan><tspan x="0" y="9" fill="#444444" font-family="'HelveticaNeue-CondensedBold'" font-size="11">Cave</tspan></text>
	</g>
</g>
<g id="Place_Connecting_Cave">
	<circle fill="#F29E53" stroke="#444444" stroke-width="5" stroke-miterlimit="10" cx="203.75" cy="376.75" r="10"/>
	<g opacity="0.5">
		<text transform="matrix(1 0 0 1 198.75 399)"><tspan x="0" y="0" fill="#444444" font-family="'HelveticaNeue-CondensedBold'" font-size="11">Connecting</tspan><tspan x="0" y="9" fill="#444444" font-family="'HelveticaNeue-CondensedBold'" font-size="11">Cave</tspan></text>
	</g>
</g>
<g id="Place_Reflection_Cave">
	<circle fill="#F29E53" stroke="#444444" stroke-width="5" stroke-miterlimit="10" cx="127.75" cy="257.75" r="10"/>
	<g opacity="0.5">
		<text transform="matrix(1 0 0 1 123.7183 280.25)"><tspan x="0" y="0" fill="#444444" font-family="'HelveticaNeue-CondensedBold'" font-size="11">Reflection</tspan><tspan x="0" y="9" fill="#444444" font-family="'HelveticaNeue-CondensedBold'" font-size="11">Cave</tspan></text>
	</g>
</g>
<g id="Town_Couriway">
	<circle fill="#FFFFFF" stroke="#444444" stroke-width="5" stroke-miterlimit="10" cx="930.75" cy="299.75" r="15.75"/>
	<text transform="matrix(1 0 0 1 861.5503 295.5)"><tspan x="0" y="0" fill="#444444" font-family="'HelveticaNeue-CondensedBold'" font-size="13">Couriway</tspan><tspan x="17.614" y="13" fill="#444444" font-family="'HelveticaNeue-CondensedBold'" font-size="13">Town</tspan></text>
</g>
<g id="City_Laverre">
	<circle fill="#FFFFFF" stroke="#444444" stroke-width="5" stroke-miterlimit="10" cx="515.75" cy="72.75" r="15.75"/>
	<text transform="matrix(1 0 0 1 537 64.2319)"><tspan x="0" y="0" fill="#444444" font-family="'HelveticaNeue-CondensedBold'" font-size="13">Laverre</tspan><tspan x="0" y="13" fill="#444444" font-family="'HelveticaNeue-CondensedBold'" font-size="13">City</tspan></text>
</g>
<g id="Town_Dendemille">
	<circle fill="#FFFFFF" stroke="#444444" stroke-width="5" stroke-miterlimit="10" cx="684.75" cy="196.75" r="15.75"/>
	<text transform="matrix(1 0 0 1 649.0459 227.5)" fill="#444444" font-family="'HelveticaNeue-CondensedBold'" font-size="13">Dendemille Town</text>
</g>
<g id="City_Kiloude">
	<circle fill="#FFFFFF" stroke="#444444" stroke-width="5" stroke-miterlimit="10" cx="748.75" cy="593.75" r="15.75"/>
	<text transform="matrix(1 0 0 1 770.75 597.5)" fill="#444444" font-family="'HelveticaNeue-CondensedBold'" font-size="13">Kiloude City</text>
</g>
</svg>
